<svg width="15" height="28" viewBox="0 0 15 28" fill="none" xmlns="http://www.w3.org/2000/svg">
<path d="M13.3717 9.72374C13.3838 9.60583 13.2913 9.50333 13.1728 9.50333H9.34887V6.85009C9.34887 5.85367 10.0093 5.62137 10.4744 5.62137C10.8568 5.62137 12.5469 5.62137 13.1304 5.62137C13.2408 5.62137 13.3293 5.53182 13.3293 5.42137V1.44015C13.3293 1.33 13.2402 1.24058 13.13 1.24015L9.39755 1.22559C5.03299 1.22559 4.03975 4.49266 4.03975 6.58339V9.50333H1.71562C1.60517 9.50333 1.51562 9.59287 1.51562 9.70333V13.8171C1.51562 13.9276 1.60517 14.0171 1.71563 14.0171H4.03975C4.03975 19.2361 4.03975 25.4186 4.03975 26.5921C4.03975 26.7026 4.12929 26.7896 4.23975 26.7896H9.14887C9.25933 26.7896 9.34887 26.7024 9.34887 26.592C9.34887 25.4122 9.34887 19.1766 9.34887 14.0171H12.7508C12.8533 14.0171 12.9393 13.9395 12.9497 13.8375L13.3717 9.72374Z" fill="#17C1BC" stroke="#17C1BC" stroke-width="2"/>
</svg>
