<svg width="32" height="21" viewBox="0 0 32 21" fill="none" xmlns="http://www.w3.org/2000/svg">
<path d="M31.307 17.125C29.9016 14.9127 28.2569 12.8618 26.4027 11.0094C26.3689 10.9673 26.3506 10.9149 26.3506 10.861C26.3506 10.807 26.3689 10.7547 26.4027 10.7125C27.9983 8.53465 29.4084 6.22677 30.6183 3.81316C30.7933 3.46778 30.8765 3.08318 30.8599 2.69635C30.8432 2.30952 30.7273 1.93348 30.5233 1.60441C30.3372 1.26995 30.0652 0.99124 29.7353 0.79709C29.4055 0.602939 29.0298 0.500388 28.647 0.500033H25.0845C24.6325 0.508805 24.1923 0.646443 23.8158 0.896769C23.4392 1.14709 23.142 1.49971 22.9589 1.91316C21.9241 4.20166 20.6841 6.39167 19.2539 8.45628V2.63753C19.2555 2.35639 19.2013 2.07773 19.0944 1.81769C18.9876 1.55764 18.8302 1.32138 18.6314 1.12258C18.4326 0.923782 18.1963 0.766395 17.9363 0.659533C17.6762 0.552671 17.3976 0.498458 17.1164 0.500033H11.9152C11.6124 0.504741 11.3166 0.592063 11.0598 0.752571C10.803 0.91308 10.595 1.14068 10.4581 1.4108C10.3212 1.68092 10.2607 1.9833 10.2831 2.2853C10.3055 2.58729 10.4099 2.87744 10.5852 3.12441L11.0602 3.78941C11.3149 4.15532 11.4517 4.59041 11.452 5.03628V9.59628C9.88447 7.27727 8.63815 4.75666 7.74704 2.10316C7.58635 1.63557 7.28374 1.2298 6.88141 0.942416C6.47908 0.655037 5.99709 0.500386 5.50266 0.500033H2.59329C2.28416 0.50373 1.97986 0.577145 1.70305 0.714806C1.42624 0.852468 1.18408 1.05083 0.994594 1.2951C0.805111 1.53937 0.673202 1.82326 0.608696 2.1256C0.54419 2.42794 0.548751 2.74095 0.622039 3.04128C2.22516 9.84566 5.58579 15.4863 9.84891 18.4788C10.1044 18.6603 10.4213 18.7334 10.7305 18.6823C11.0397 18.6311 11.3161 18.4598 11.4995 18.2057C11.5913 18.0787 11.657 17.9349 11.6929 17.7825C11.7288 17.6301 11.7342 17.4721 11.7089 17.3176C11.6835 17.1631 11.6278 17.0151 11.545 16.8822C11.4622 16.7493 11.3539 16.6341 11.2264 16.5432C7.49766 13.9307 4.52891 8.95503 3.02079 2.87503H5.51454C6.60732 6.19516 8.25342 9.30669 10.3833 12.0782C10.6295 12.3927 10.9685 12.6216 11.3522 12.7325C11.7359 12.8434 12.1448 12.8305 12.5208 12.6957C12.9066 12.5612 13.2403 12.3088 13.4747 11.9742C13.7091 11.6396 13.8324 11.2398 13.827 10.8313V5.03628C13.8296 4.28139 13.6417 3.53806 13.2808 2.87503H16.8433V9.32316C16.839 9.78455 16.9867 10.2345 17.2636 10.6036C17.5404 10.9728 17.931 11.2405 18.3752 11.3657C18.8061 11.5091 19.2722 11.5065 19.7015 11.3584C20.1308 11.2103 20.4994 10.9249 20.7502 10.5463C22.4369 8.13994 23.8771 5.5699 25.0489 2.87503H28.3739C27.2421 5.10049 25.9357 7.23279 24.467 9.25191C24.0967 9.74732 23.9169 10.3594 23.9605 10.9764C24.0041 11.5934 24.2682 12.1741 24.7045 12.6125C26.4365 14.3579 27.9955 16.2668 29.3595 18.3125H25.3814C24.1542 16.2811 22.5062 14.5359 20.5483 13.1944C20.2545 12.9792 19.9063 12.8506 19.5432 12.8233C19.18 12.796 18.8165 12.8711 18.4939 13.04C18.1622 13.2098 17.8843 13.4686 17.6913 13.7874C17.4984 14.1062 17.398 14.4724 17.4014 14.845V17.6713C17.4079 17.8363 17.3493 17.9972 17.2382 18.1194C17.1272 18.2416 16.9725 18.3152 16.8077 18.3244H15.7864C15.4715 18.3244 15.1694 18.4495 14.9467 18.6722C14.724 18.8949 14.5989 19.197 14.5989 19.5119C14.5989 19.8269 14.724 20.1289 14.9467 20.3516C15.1694 20.5743 15.4715 20.6994 15.7864 20.6994H16.8077C17.2017 20.6963 17.5912 20.6154 17.9538 20.4614C18.3165 20.3074 18.6452 20.0833 18.921 19.802C19.1968 19.5206 19.4144 19.1876 19.5612 18.8219C19.708 18.4563 19.7811 18.0653 19.7764 17.6713V15.5694C21.2049 16.6439 22.4142 17.9822 23.3389 19.5119C23.5431 19.8657 23.835 20.1609 24.1866 20.3689C24.5381 20.5769 24.9374 20.6908 25.3458 20.6994H29.3595C29.77 20.7004 30.1731 20.5906 30.5263 20.3816C30.8795 20.1726 31.1698 19.8722 31.3664 19.5119C31.5681 19.1442 31.6689 18.7297 31.6585 18.3105C31.648 17.8912 31.5268 17.4822 31.307 17.125Z" fill="#BC0000"/>
</svg>
