<svg width="19" height="19" viewBox="0 0 19 19" fill="none" xmlns="http://www.w3.org/2000/svg">
<path d="M18.7771 9.37749C18.7734 10.9843 18.4246 12.4019 17.7195 13.7193C17.0553 14.9625 16.1387 15.9978 14.9846 16.8142C13.9715 17.5304 12.8619 18.0203 11.6484 18.2726C10.3051 18.5509 8.9617 18.5212 7.62947 18.2021C6.9244 18.0314 6.249 17.7716 5.61443 17.4265C5.50682 17.3671 5.41404 17.3634 5.299 17.4005C3.89998 17.8496 2.50096 18.2949 1.10193 18.7402C0.942363 18.7921 0.786504 18.8404 0.626933 18.8998C0.515605 18.9406 0.508183 18.8998 0.537871 18.807C0.701152 18.3283 0.860723 17.8496 1.024 17.3671C1.37283 16.3244 1.72166 15.2816 2.07791 14.2425C2.12615 14.1052 2.05564 14.0162 1.99998 13.9197C1.56209 13.1589 1.25037 12.35 1.0574 11.4964C0.638066 9.65581 0.786504 7.8523 1.49158 6.10445C1.89979 5.09507 2.4824 4.1896 3.2283 3.38804C4.1783 2.36382 5.30272 1.6105 6.60154 1.10581C7.81502 0.634525 9.06932 0.452689 10.3607 0.530619C12.1308 0.638236 13.7414 1.22456 15.1553 2.29331C16.9847 3.67378 18.1351 5.48843 18.5953 7.74097C18.7178 8.31617 18.7623 8.89878 18.7771 9.37749ZM9.741 2.03355C9.39588 2.0187 8.99139 2.05953 8.5869 2.1189C8.42733 2.14117 8.27147 2.17456 8.11561 2.21538C5.7035 2.82769 3.97049 4.26753 2.94998 6.53492C2.35994 7.84488 2.20037 9.22906 2.42303 10.6466C2.59744 11.7673 3.01307 12.799 3.66248 13.7304C3.73299 13.8343 3.74412 13.9234 3.7033 14.0384C3.42869 14.8437 3.1615 15.6527 2.89061 16.4617C2.87576 16.5062 2.83123 16.5582 2.87205 16.599C2.91287 16.6435 2.96482 16.5953 3.00936 16.5804C3.82205 16.3207 4.63475 16.0646 5.44002 15.7937C5.62557 15.7306 5.75916 15.7603 5.91873 15.8568C7.7408 16.9515 9.68904 17.241 11.7412 16.6955C13.2998 16.2835 14.5838 15.4337 15.6006 14.1794C16.584 12.966 17.1332 11.5781 17.2445 10.0269C17.3299 8.8357 17.1443 7.67788 16.6693 6.57203C16.0719 5.18042 15.1404 4.06714 13.8824 3.2396C12.6504 2.43062 11.2885 2.01499 9.741 2.03355Z" fill="currentColor"/>
<path d="M5.31006 7.33275C5.3249 6.49779 5.65146 5.81126 6.28975 5.27689C6.47158 5.12474 6.69053 5.06165 6.93174 5.10247C7.03564 5.11732 7.14326 5.13216 7.24346 5.12103C7.4958 5.10247 7.64053 5.24349 7.71846 5.4513C7.95596 6.07474 8.18603 6.70189 8.41982 7.32533C8.46436 7.44408 8.45322 7.55169 8.39756 7.66302C8.25283 7.96361 8.02275 8.1974 7.79268 8.43119C7.59229 8.63529 7.58115 8.70208 7.71846 8.95072C8.38271 10.1531 9.29932 11.0882 10.5685 11.656C10.6315 11.682 10.6872 11.7265 10.7466 11.7525C10.9062 11.8304 11.0509 11.823 11.1845 11.6857C11.4442 11.4222 11.6855 11.1402 11.9192 10.8507C12.1011 10.6244 12.1864 10.591 12.4425 10.706C13.0659 10.9954 13.6597 11.3331 14.2646 11.6597C14.4649 11.7673 14.4872 11.9158 14.4575 12.1867C14.3351 13.2888 13.4927 13.7898 12.5315 13.9494C12.2087 14.0013 11.9044 13.9716 11.6001 13.8751C10.7095 13.5931 9.83369 13.2665 9.04697 12.7544C8.31221 12.2757 7.68135 11.6783 7.12842 10.9992C6.59033 10.3349 6.11162 9.63353 5.71455 8.87279C5.49189 8.43861 5.31006 7.76322 5.31006 7.33275Z" fill="currentColor"/>
</svg>
