<svg xmlns="http://www.w3.org/2000/svg" xmlns:xlink="http://www.w3.org/1999/xlink"><symbol id="close" viewBox="0 0 13 13">
<path d="M1.94975 11.8493L11.8492 1.94979M11.8492 11.8493L1.94975 1.94979" stroke="#D4D4D4" stroke-width="2" stroke-linecap="round"/>
</symbol><symbol id="date" viewBox="0 0 18 20">
<path d="M0 4C0 2.9 0.9 2 2 2H16C16.5304 2 17.0391 2.21071 17.4142 2.58579C17.7893 2.96086 18 3.46957 18 4V18C18 18.5304 17.7893 19.0391 17.4142 19.4142C17.0391 19.7893 16.5304 20 16 20H2C1.46957 20 0.960859 19.7893 0.585786 19.4142C0.210714 19.0391 0 18.5304 0 18V4ZM2 6V18H16V6H2ZM4 0H6V2H4V0ZM12 0H14V2H12V0ZM4 9H6V11H4V9ZM4 13H6V15H4V13ZM8 9H10V11H8V9ZM8 13H10V15H8V13ZM12 9H14V11H12V9ZM12 13H14V15H12V13Z" fill="#0499DD"/>
</symbol><symbol id="facebook-footer" viewBox="0 0 9 18">
<path d="M6.50865 3.19324H9V0H6.02076C2.76125 0.171067 1.59862 2.27138 2.07612 5.81626H0V9.15206H2.07612V18H6.02076V9.15206H8.97924V5.81626H6.01038C5.98962 4.81837 5.96886 3.52587 6.50865 3.19324Z" fill="#D22856"/>
</symbol><symbol id="like" viewBox="0 0 24 24">
<path d="M20.8401 4.60999C20.3294 4.099 19.7229 3.69364 19.0555 3.41708C18.388 3.14052 17.6726 2.99817 16.9501 2.99817C16.2276 2.99817 15.5122 3.14052 14.8448 3.41708C14.1773 3.69364 13.5709 4.099 13.0601 4.60999L12.0001 5.66999L10.9401 4.60999C9.90843 3.5783 8.50915 2.9987 7.05012 2.9987C5.59109 2.9987 4.19181 3.5783 3.16012 4.60999C2.12843 5.64169 1.54883 7.04096 1.54883 8.49999C1.54883 9.95903 2.12843 11.3583 3.16012 12.39L4.22012 13.45L12.0001 21.23L19.7801 13.45L20.8401 12.39C21.3511 11.8792 21.7565 11.2728 22.033 10.6053C22.3096 9.93789 22.4519 9.22248 22.4519 8.49999C22.4519 7.77751 22.3096 7.0621 22.033 6.39464C21.7565 5.72718 21.3511 5.12075 20.8401 4.60999V4.60999Z" stroke="#D4D4D4" fill="currentColor" stroke-width="2" stroke-linecap="round" stroke-linejoin="round"/>
</symbol><symbol id="location" viewBox="0 0 15 19">
<path d="M14.79 7.23957C14.79 3.39012 11.69 0.290115 7.84056 0.290115C3.99111 0.290115 0.891113 3.39012 0.891113 7.23957C0.891113 11.089 7.84056 18.2769 7.84056 18.2769C7.84056 18.2769 14.79 11.089 14.79 7.23957ZM4.6043 7.1033C4.6043 5.33187 6.06914 3.86704 7.84056 3.86704C9.61199 3.86704 11.0768 5.29781 11.0768 7.1033C11.0768 8.87473 9.64606 10.3396 7.84056 10.3396C6.06914 10.3396 4.6043 8.87473 4.6043 7.1033Z" fill="#0499DD"/>
</symbol><symbol id="logo" viewBox="0 0 40 56">
<rect width="40" height="58" fill="#000"/>
</symbol><symbol id="minus" viewBox="0 0 16 2">
<line x1="1" y1="1" x2="15" y2="1" stroke="#0499DD" stroke-width="2" stroke-linecap="round"/>
</symbol><symbol id="person" viewBox="0 0 23 23">
<path d="M15.8123 13.4167C14.3748 13.4167 13.2248 13.8 12.3623 14.2792C13.704 15.4292 14.279 16.7709 14.3748 16.8667L14.4706 17.0584V19.1667H22.1373V17.25C22.0415 17.25 20.5081 13.4167 15.8123 13.4167Z" fill="#0499DD"/>
<path d="M15.8122 11.5C17.6646 11.5 19.1663 9.99829 19.1663 8.14584C19.1663 6.29338 17.6646 4.79167 15.8122 4.79167C13.9597 4.79167 12.458 6.29338 12.458 8.14584C12.458 9.99829 13.9597 11.5 15.8122 11.5Z" fill="#0499DD"/>
<path d="M3.8335 8.14584C3.8335 6.325 5.36683 4.79167 7.18766 4.79167C9.0085 4.79167 10.5418 6.325 10.5418 8.14584C10.5418 9.96667 9.0085 11.5 7.18766 11.5C5.36683 11.5 3.8335 9.96667 3.8335 8.14584ZM7.18766 13.4167C2.49183 13.4167 0.958496 17.25 0.958496 17.25V19.1667H13.4168V17.25C13.4168 17.25 11.8835 13.4167 7.18766 13.4167Z" fill="#0499DD"/>
</symbol><symbol id="plus" viewBox="0 0 16 16">
<path d="M1 8H15M8 15V1" stroke="#0499DD" stroke-width="2" stroke-linecap="round"/>
</symbol><symbol id="price" viewBox="0 0 22 22">
<path d="M14.2268 6.48265C16.7217 6.48265 18.7441 5.76033 18.7441 4.86931C18.7441 3.9783 16.7217 3.25598 14.2268 3.25598C11.732 3.25598 9.70947 3.9783 9.70947 4.86931C9.70947 5.76033 11.732 6.48265 14.2268 6.48265Z" stroke="#0499DD" stroke-width="0.6" stroke-miterlimit="10" stroke-linecap="round" stroke-linejoin="round"/>
<path d="M9.70947 5.19208C9.70947 5.48635 9.70947 6.83381 9.70947 7.12808C9.70947 8.01896 11.7313 8.74141 14.2268 8.74141C16.7223 8.74141 18.7441 8.01896 18.7441 7.12808C18.7441 6.83381 18.7441 5.48635 18.7441 5.19208" stroke="#0499DD" stroke-width="0.6" stroke-miterlimit="10" stroke-linecap="round" stroke-linejoin="round"/>
<path d="M12.1455 10.8189C12.7683 10.9345 13.4762 11 14.2267 11C16.7222 11 18.744 10.2775 18.744 9.38662C18.744 9.09235 18.744 7.74489 18.744 7.45062" stroke="#0499DD" stroke-width="0.6" stroke-miterlimit="10" stroke-linecap="round" stroke-linejoin="round"/>
<path d="M9.70947 7.45062C9.70947 7.74489 9.70947 8.82841 9.70947 8.82841" stroke="#0499DD" stroke-width="0.6" stroke-miterlimit="10" stroke-linecap="round" stroke-linejoin="round"/>
<path d="M12.2988 13.1048C12.8835 13.2035 13.5369 13.2587 14.2268 13.2587C16.7223 13.2587 18.7441 12.5366 18.7441 11.6453C18.7441 11.3511 18.7441 10.0036 18.7441 9.70935" stroke="#0499DD" stroke-width="0.6" stroke-miterlimit="10" stroke-linecap="round" stroke-linejoin="round"/>
<path d="M12.2739 15.3593C12.8647 15.4606 13.5272 15.5174 14.2267 15.5174C16.7222 15.5174 18.744 14.7953 18.744 13.9041C18.744 13.6098 18.744 12.2624 18.744 11.9681" stroke="#0499DD" stroke-width="0.6" stroke-miterlimit="10" stroke-linecap="round" stroke-linejoin="round"/>
<path d="M7.77319 11.9679C10.268 11.9679 12.2905 11.2456 12.2905 10.3546C12.2905 9.46359 10.268 8.74127 7.77319 8.74127C5.27834 8.74127 3.25586 9.46359 3.25586 10.3546C3.25586 11.2456 5.27834 11.9679 7.77319 11.9679Z" stroke="#0499DD" stroke-width="0.6" stroke-miterlimit="10" stroke-linecap="round" stroke-linejoin="round"/>
<path d="M3.25586 10.6774C3.25586 10.9716 3.25586 12.3191 3.25586 12.6134C3.25586 13.5046 5.27769 14.2267 7.77319 14.2267C10.2687 14.2267 12.2905 13.5046 12.2905 12.6134C12.2905 12.3191 12.2905 10.9716 12.2905 10.6774" stroke="#0499DD" stroke-width="0.6" stroke-miterlimit="10" stroke-linecap="round" stroke-linejoin="round"/>
<path d="M3.25586 12.9359C3.25586 13.2302 3.25586 14.5776 3.25586 14.8719C3.25586 15.7631 5.27769 16.4852 7.77319 16.4852C10.2687 16.4852 12.2905 15.7631 12.2905 14.8719C12.2905 14.5776 12.2905 13.2302 12.2905 12.9359" stroke="#0499DD" stroke-width="0.6" stroke-miterlimit="10" stroke-linecap="round" stroke-linejoin="round"/>
<path d="M3.25586 15.1946C3.25586 15.4889 3.25586 16.8364 3.25586 17.1306C3.25586 18.0218 5.27769 18.744 7.77319 18.744C10.2687 18.744 12.2905 18.0218 12.2905 17.1306C12.2905 16.8364 12.2905 15.4889 12.2905 15.1946" stroke="#0499DD" stroke-width="0.6" stroke-miterlimit="10" stroke-linecap="round" stroke-linejoin="round"/>
</symbol><symbol id="time" viewBox="0 0 15 15">
<path d="M7.5 14.5313C6.10935 14.5313 4.74993 14.1189 3.59365 13.3463C2.43737 12.5737 1.53615 11.4755 1.00398 10.1907C0.471797 8.90595 0.332554 7.4922 0.603857 6.12827C0.875159 4.76435 1.54482 3.5115 2.52816 2.52816C3.5115 1.54482 4.76435 0.875159 6.12827 0.603857C7.4922 0.332554 8.90595 0.471797 10.1907 1.00398C11.4755 1.53615 12.5737 2.43737 13.3463 3.59365C14.1189 4.74993 14.5313 6.10935 14.5313 7.5C14.5313 9.36481 13.7905 11.1532 12.4718 12.4718C11.1532 13.7905 9.36481 14.5313 7.5 14.5313ZM7.5 1.40625C6.29477 1.40625 5.11661 1.76365 4.1145 2.43323C3.11238 3.10282 2.33133 4.05454 1.87011 5.16803C1.40889 6.28151 1.28821 7.50676 1.52334 8.68883C1.75847 9.87091 2.33884 10.9567 3.19107 11.8089C4.0433 12.6612 5.1291 13.2415 6.31117 13.4767C7.49324 13.7118 8.71849 13.5911 9.83198 13.1299C10.9455 12.6687 11.8972 11.8876 12.5668 10.8855C13.2364 9.8834 13.5938 8.70523 13.5938 7.5C13.5938 5.88384 12.9517 4.33387 11.8089 3.19107C10.6661 2.04827 9.11617 1.40625 7.5 1.40625Z" fill="#0499DD"/>
<path d="M9.48751 10.1531L7.1672 7.83281C7.12375 7.78901 7.08938 7.73707 7.06605 7.67996C7.04273 7.62284 7.0309 7.56169 7.03126 7.5V3.75H7.96876V7.30781L10.1531 9.4875L9.48751 10.1531Z" fill="#0499DD"/>
</symbol><symbol id="twitter-footer" viewBox="0 0 18 14">
<path d="M11.5641 0.168904C12.2458 -0.0461515 12.9837 -0.0560928 13.6719 0.140507C14.3602 0.337107 14.9633 0.730138 15.3947 1.26319C16.1053 1.05385 16.8055 0.815959 17.5263 0.606617C17.5164 0.925848 17.4299 1.23907 17.2732 1.52372C17.1165 1.80837 16.8935 2.05738 16.6201 2.2528C16.8726 2.27877 17.1281 2.25112 17.3673 2.17197C17.6064 2.09281 17.8228 1.96424 18 1.79606C17.901 2.20987 17.6999 2.59695 17.4123 2.92708C17.1247 3.2572 16.7585 3.52144 16.3421 3.69916C16.095 9.96988 12.9748 14.1662 5.65332 13.9949H5.14874C4.70595 13.9949 0.731121 13.5667 0 12.2441C1.75201 12.4899 3.53888 12.0976 4.98398 11.1498C3.95423 10.8643 2.13158 10.7026 1.82265 8.40934C2.2108 8.54337 2.6321 8.57306 3.03776 8.49498C1.76087 7.70519 0.339817 7.0391 0.422197 4.99327C0.819634 5.29882 1.3269 5.45507 1.84325 5.43098C1.10183 5.20261 -0.24714 2.30989 0.895881 0.825474C2.82151 2.54778 4.86041 4.17493 8.48512 4.3367C8.71167 2.20522 9.68993 0.777896 11.5641 0.168904Z" fill="#D22856"/>
</symbol><symbol id="youtube-footer" viewBox="0 0 15 13">
<path d="M1.83356 12.8089C1.64633 12.9278 1.42471 12.9941 1.19626 12.9996C0.967817 13.0051 0.74263 12.9495 0.548717 12.8398C0.354804 12.7301 0.200724 12.571 0.105646 12.3824C0.010569 12.1938 -0.0213097 11.984 0.0139762 11.779V1.22097C-0.0213097 1.01605 0.010569 0.806234 0.105646 0.617628C0.200724 0.429021 0.354804 0.269949 0.548717 0.1602C0.74263 0.0504516 0.967817 -0.00512927 1.19626 0.000372265C1.42471 0.0058738 1.64633 0.0722149 1.83356 0.191142L14.2333 5.69284C15.2556 6.13817 15.2556 6.86183 14.2333 7.30716L1.83356 12.8089Z" fill="#D22856"/>
</symbol></svg>