<svg xmlns="http://www.w3.org/2000/svg" xmlns:xlink="http://www.w3.org/1999/xlink"><defs>
<clipPath id="clip0_71_2318">
<rect width="19" height="19" fill="currentColor"/>
</clipPath>
</defs><symbol id="close" viewBox="0 0 13 13">
<path d="M1.94975 11.8493L11.8492 1.94979M11.8492 11.8493L1.94975 1.94979" stroke="#D4D4D4" stroke-width="2" stroke-linecap="round"/>
</symbol><symbol id="date" viewBox="0 0 18 20">
<path d="M0 4C0 2.9 0.9 2 2 2H16C16.5304 2 17.0391 2.21071 17.4142 2.58579C17.7893 2.96086 18 3.46957 18 4V18C18 18.5304 17.7893 19.0391 17.4142 19.4142C17.0391 19.7893 16.5304 20 16 20H2C1.46957 20 0.960859 19.7893 0.585786 19.4142C0.210714 19.0391 0 18.5304 0 18V4ZM2 6V18H16V6H2ZM4 0H6V2H4V0ZM12 0H14V2H12V0ZM4 9H6V11H4V9ZM4 13H6V15H4V13ZM8 9H10V11H8V9ZM8 13H10V15H8V13ZM12 9H14V11H12V9ZM12 13H14V15H12V13Z" fill="#0499DD"/>
</symbol><symbol id="facebook-footer" viewBox="0 0 9 18">
<path d="M6.50865 3.19324H9V0H6.02076C2.76125 0.171067 1.59862 2.27138 2.07612 5.81626H0V9.15206H2.07612V18H6.02076V9.15206H8.97924V5.81626H6.01038C5.98962 4.81837 5.96886 3.52587 6.50865 3.19324Z" fill="#D22856"/>
</symbol><symbol id="facebook" viewBox="0 0 15 28">
<path d="M13.3717 9.72374C13.3838 9.60583 13.2913 9.50333 13.1728 9.50333H9.34887V6.85009C9.34887 5.85367 10.0093 5.62137 10.4744 5.62137C10.8568 5.62137 12.5469 5.62137 13.1304 5.62137C13.2408 5.62137 13.3293 5.53182 13.3293 5.42137V1.44015C13.3293 1.33 13.2402 1.24058 13.13 1.24015L9.39755 1.22559C5.03299 1.22559 4.03975 4.49266 4.03975 6.58339V9.50333H1.71562C1.60517 9.50333 1.51562 9.59287 1.51562 9.70333V13.8171C1.51562 13.9276 1.60517 14.0171 1.71563 14.0171H4.03975C4.03975 19.2361 4.03975 25.4186 4.03975 26.5921C4.03975 26.7026 4.12929 26.7896 4.23975 26.7896H9.14887C9.25933 26.7896 9.34887 26.7024 9.34887 26.592C9.34887 25.4122 9.34887 19.1766 9.34887 14.0171H12.7508C12.8533 14.0171 12.9393 13.9395 12.9497 13.8375L13.3717 9.72374Z" fill="#17C1BC" stroke="#17C1BC" stroke-width="2"/>
</symbol><symbol id="inst" viewBox="0 0 28 28">
<path d="M13.9971 0.34668C10.289 0.34668 9.82407 0.362397 8.3678 0.428842C6.91457 0.495179 5.92206 0.725949 5.05356 1.06349C4.15574 1.41241 3.39433 1.87926 2.6353 2.63828C1.87627 3.39731 1.40942 4.15872 1.0605 5.05654C0.722965 5.92499 0.492195 6.9175 0.425858 8.37073C0.359413 9.827 0.34375 10.292 0.34375 14C0.34375 17.708 0.359413 18.1729 0.425858 19.6292C0.492195 21.0824 0.722965 22.0749 1.0605 22.9434C1.40942 23.8412 1.87627 24.6026 2.6353 25.3617C3.39433 26.1207 4.15574 26.5876 5.05356 26.9365C5.92206 27.274 6.91457 27.5048 8.3678 27.5711C9.82407 27.6375 10.289 27.6533 13.9971 27.6533C17.705 27.6533 18.17 27.6375 19.6263 27.5711C21.0795 27.5048 22.072 27.274 22.9405 26.9365C23.8383 26.5876 24.5997 26.1207 25.3588 25.3617C26.1178 24.6026 26.5847 23.8412 26.9336 22.9434C27.2711 22.0749 27.5019 21.0824 27.5682 19.6292C27.6346 18.1729 27.6503 17.708 27.6503 14C27.6503 10.292 27.6346 9.827 27.5682 8.37073C27.5019 6.9175 27.2711 5.92499 26.9336 5.05654C26.5847 4.15872 26.1178 3.39731 25.3588 2.63828C24.5997 1.87926 23.8383 1.41241 22.9405 1.06349C22.072 0.725949 21.0795 0.495179 19.6263 0.428842C18.17 0.362397 17.705 0.34668 13.9971 0.34668ZM13.9971 2.80678C17.6426 2.80678 18.0745 2.82066 19.5141 2.88634C20.8453 2.9471 21.5683 3.16952 22.0494 3.35645C22.6867 3.60412 23.1415 3.90004 23.6192 4.37778C24.097 4.85553 24.3929 5.3104 24.6406 5.94765C24.8275 6.42875 25.05 7.15169 25.1107 8.48287C25.1763 9.92255 25.1903 10.3544 25.1903 14C25.1903 17.6455 25.1763 18.0774 25.1107 19.5171C25.05 20.8482 24.8275 21.5712 24.6406 22.0523C24.3929 22.6896 24.097 23.1444 23.6192 23.6222C23.1415 24.0999 22.6867 24.3958 22.0494 24.6435C21.5683 24.8305 20.8453 25.0529 19.5141 25.1136C18.0747 25.1793 17.6429 25.1932 13.9971 25.1932C10.3512 25.1932 9.91946 25.1793 8.47994 25.1136C7.14876 25.0529 6.42582 24.8305 5.94472 24.6435C5.30742 24.3958 4.8526 24.0999 4.3748 23.6222C3.89706 23.1444 3.60114 22.6896 3.35352 22.0523C3.16654 21.5712 2.94411 20.8482 2.88336 19.5171C2.81767 18.0774 2.8038 17.6455 2.8038 14C2.8038 10.3544 2.81767 9.92255 2.88336 8.48287C2.94411 7.15169 3.16654 6.42875 3.35352 5.94765C3.60114 5.3104 3.89706 4.85553 4.3748 4.37778C4.8526 3.90004 5.30742 3.60412 5.94472 3.35645C6.42582 3.16952 7.14876 2.9471 8.47994 2.88634C9.91962 2.82066 10.3515 2.80678 13.9971 2.80678Z" fill="#E59B06"/>
<path d="M13.9955 18.551C11.482 18.551 9.44442 16.5134 9.44442 13.9999C9.44442 11.4864 11.482 9.44882 13.9955 9.44882C16.509 9.44882 18.5466 11.4864 18.5466 13.9999C18.5466 16.5134 16.509 18.551 13.9955 18.551ZM13.9955 6.98877C10.1233 6.98877 6.98438 10.1277 6.98438 13.9999C6.98438 17.8721 10.1233 21.0111 13.9955 21.0111C17.8677 21.0111 21.0067 17.8721 21.0067 13.9999C21.0067 10.1277 17.8677 6.98877 13.9955 6.98877Z" fill="#E59B06"/>
<path d="M22.9252 6.71161C22.9252 7.61648 22.1917 8.34998 21.2868 8.34998C20.382 8.34998 19.6484 7.61648 19.6484 6.71161C19.6484 5.80674 20.382 5.07324 21.2868 5.07324C22.1917 5.07324 22.9252 5.80674 22.9252 6.71161Z" fill="#E59B06"/>
</symbol><symbol id="like" viewBox="0 0 24 24">
<path d="M20.8401 4.60999C20.3294 4.099 19.7229 3.69364 19.0555 3.41708C18.388 3.14052 17.6726 2.99817 16.9501 2.99817C16.2276 2.99817 15.5122 3.14052 14.8448 3.41708C14.1773 3.69364 13.5709 4.099 13.0601 4.60999L12.0001 5.66999L10.9401 4.60999C9.90843 3.5783 8.50915 2.9987 7.05012 2.9987C5.59109 2.9987 4.19181 3.5783 3.16012 4.60999C2.12843 5.64169 1.54883 7.04096 1.54883 8.49999C1.54883 9.95903 2.12843 11.3583 3.16012 12.39L4.22012 13.45L12.0001 21.23L19.7801 13.45L20.8401 12.39C21.3511 11.8792 21.7565 11.2728 22.033 10.6053C22.3096 9.93789 22.4519 9.22248 22.4519 8.49999C22.4519 7.77751 22.3096 7.0621 22.033 6.39464C21.7565 5.72718 21.3511 5.12075 20.8401 4.60999V4.60999Z" stroke="currentColor" fill="currentColor" stroke-width="2" stroke-linecap="round" stroke-linejoin="round"/>
</symbol><symbol id="location" viewBox="0 0 15 19">
<path d="M14.79 7.23957C14.79 3.39012 11.69 0.290115 7.84056 0.290115C3.99111 0.290115 0.891113 3.39012 0.891113 7.23957C0.891113 11.089 7.84056 18.2769 7.84056 18.2769C7.84056 18.2769 14.79 11.089 14.79 7.23957ZM4.6043 7.1033C4.6043 5.33187 6.06914 3.86704 7.84056 3.86704C9.61199 3.86704 11.0768 5.29781 11.0768 7.1033C11.0768 8.87473 9.64606 10.3396 7.84056 10.3396C6.06914 10.3396 4.6043 8.87473 4.6043 7.1033Z" fill="#0499DD"/>
</symbol><symbol id="logo" viewBox="0 0 40 56">
<rect width="40" height="58" fill="#000"/>
</symbol><symbol id="mail" viewBox="0 0 19 19">
<g clip-path="url(#clip0_71_2318)">
<path d="M17.3273 4.72464C17.2923 4.67775 17.2484 4.6382 17.1981 4.60827C17.1479 4.57834 17.0922 4.5586 17.0343 4.55019C16.9764 4.54178 16.9174 4.54486 16.8607 4.55926C16.804 4.57366 16.7507 4.59909 16.7038 4.6341L9.52093 9.99566C9.49524 10.0149 9.46399 10.0253 9.43187 10.0253C9.39975 10.0253 9.3685 10.0149 9.34281 9.99566L2.30093 4.61035C2.25444 4.57487 2.20142 4.5489 2.14489 4.53391C2.08836 4.51893 2.02943 4.51522 1.97147 4.52301C1.91351 4.5308 1.85765 4.54992 1.80709 4.5793C1.75652 4.60868 1.71223 4.64772 1.67675 4.69421C1.64128 4.74071 1.6153 4.79373 1.60032 4.85026C1.58533 4.90679 1.58163 4.96571 1.58942 5.02367C1.5972 5.08163 1.61633 5.13749 1.64571 5.18806C1.67508 5.23863 1.71413 5.28292 1.76062 5.31839L7.29734 9.55332L1.82148 13.6799C1.77431 13.7151 1.73453 13.7592 1.70441 13.8098C1.67429 13.8603 1.65443 13.9163 1.64595 13.9745C1.63747 14.0328 1.64055 14.0921 1.655 14.1492C1.66946 14.2062 1.69501 14.2599 1.73019 14.307C1.76538 14.3542 1.80951 14.394 1.86007 14.4241C1.91063 14.4542 1.96662 14.4741 2.02486 14.4826C2.08309 14.491 2.14243 14.488 2.19948 14.4735C2.25652 14.4591 2.31017 14.4335 2.35734 14.3983L8.0321 10.1144L8.80101 10.7082C8.9803 10.8454 9.19941 10.9205 9.42518 10.9221C9.65096 10.9237 9.87112 10.8517 10.0523 10.7171L10.8598 10.1144L16.6014 14.3983C16.6483 14.4333 16.7016 14.4587 16.7583 14.4731C16.815 14.4875 16.874 14.4906 16.9319 14.4822C16.9898 14.4738 17.0454 14.454 17.0957 14.4241C17.146 14.3942 17.1898 14.3547 17.2248 14.3078C17.2598 14.2609 17.2852 14.2076 17.2996 14.1509C17.314 14.0942 17.3171 14.0352 17.3087 13.9773C17.3003 13.9194 17.2805 13.8637 17.2506 13.8135C17.2207 13.7632 17.1812 13.7193 17.1343 13.6843L11.6035 9.55183L17.2367 5.34363C17.3301 5.27307 17.392 5.16856 17.409 5.05271C17.4259 4.93687 17.3966 4.81901 17.3273 4.72464Z" fill="currentColor"/>
<path d="M16.7734 2.82031H2.22656C1.63604 2.82031 1.06971 3.0549 0.652145 3.47246C0.234584 3.89002 0 4.45635 0 5.04688L0 13.9531C0 14.5436 0.234584 15.11 0.652145 15.5275C1.06971 15.9451 1.63604 16.1797 2.22656 16.1797H16.7734C17.364 16.1797 17.9303 15.9451 18.3479 15.5275C18.7654 15.11 19 14.5436 19 13.9531V5.04688C19 4.45635 18.7654 3.89002 18.3479 3.47246C17.9303 3.0549 17.364 2.82031 16.7734 2.82031ZM18.1094 13.9531C18.1094 14.3074 17.9686 14.6472 17.7181 14.8978C17.4676 15.1483 17.1278 15.2891 16.7734 15.2891H2.22656C1.87225 15.2891 1.53245 15.1483 1.28191 14.8978C1.03138 14.6472 0.890625 14.3074 0.890625 13.9531V5.04688C0.890625 4.69256 1.03138 4.35276 1.28191 4.10222C1.53245 3.85169 1.87225 3.71094 2.22656 3.71094H16.7734C17.1278 3.71094 17.4676 3.85169 17.7181 4.10222C17.9686 4.35276 18.1094 4.69256 18.1094 5.04688V13.9531Z" fill="currentColor" stroke="currentColor" stroke-width="0.5"/>
</g>

</symbol><symbol id="minus" viewBox="0 0 16 2">
<line x1="1" y1="1" x2="15" y2="1" stroke="#0499DD" stroke-width="2" stroke-linecap="round"/>
</symbol><symbol id="person" viewBox="0 0 23 23">
<path d="M15.8123 13.4167C14.3748 13.4167 13.2248 13.8 12.3623 14.2792C13.704 15.4292 14.279 16.7709 14.3748 16.8667L14.4706 17.0584V19.1667H22.1373V17.25C22.0415 17.25 20.5081 13.4167 15.8123 13.4167Z" fill="#0499DD"/>
<path d="M15.8122 11.5C17.6646 11.5 19.1663 9.99829 19.1663 8.14584C19.1663 6.29338 17.6646 4.79167 15.8122 4.79167C13.9597 4.79167 12.458 6.29338 12.458 8.14584C12.458 9.99829 13.9597 11.5 15.8122 11.5Z" fill="#0499DD"/>
<path d="M3.8335 8.14584C3.8335 6.325 5.36683 4.79167 7.18766 4.79167C9.0085 4.79167 10.5418 6.325 10.5418 8.14584C10.5418 9.96667 9.0085 11.5 7.18766 11.5C5.36683 11.5 3.8335 9.96667 3.8335 8.14584ZM7.18766 13.4167C2.49183 13.4167 0.958496 17.25 0.958496 17.25V19.1667H13.4168V17.25C13.4168 17.25 11.8835 13.4167 7.18766 13.4167Z" fill="#0499DD"/>
</symbol><symbol id="plus" viewBox="0 0 16 16">
<path d="M1 8H15M8 15V1" stroke="#0499DD" stroke-width="2" stroke-linecap="round"/>
</symbol><symbol id="price" viewBox="0 0 22 22">
<path d="M14.2268 6.48265C16.7217 6.48265 18.7441 5.76033 18.7441 4.86931C18.7441 3.9783 16.7217 3.25598 14.2268 3.25598C11.732 3.25598 9.70947 3.9783 9.70947 4.86931C9.70947 5.76033 11.732 6.48265 14.2268 6.48265Z" stroke="#0499DD" stroke-width="0.6" stroke-miterlimit="10" stroke-linecap="round" stroke-linejoin="round"/>
<path d="M9.70947 5.19208C9.70947 5.48635 9.70947 6.83381 9.70947 7.12808C9.70947 8.01896 11.7313 8.74141 14.2268 8.74141C16.7223 8.74141 18.7441 8.01896 18.7441 7.12808C18.7441 6.83381 18.7441 5.48635 18.7441 5.19208" stroke="#0499DD" stroke-width="0.6" stroke-miterlimit="10" stroke-linecap="round" stroke-linejoin="round"/>
<path d="M12.1455 10.8189C12.7683 10.9345 13.4762 11 14.2267 11C16.7222 11 18.744 10.2775 18.744 9.38662C18.744 9.09235 18.744 7.74489 18.744 7.45062" stroke="#0499DD" stroke-width="0.6" stroke-miterlimit="10" stroke-linecap="round" stroke-linejoin="round"/>
<path d="M9.70947 7.45062C9.70947 7.74489 9.70947 8.82841 9.70947 8.82841" stroke="#0499DD" stroke-width="0.6" stroke-miterlimit="10" stroke-linecap="round" stroke-linejoin="round"/>
<path d="M12.2988 13.1048C12.8835 13.2035 13.5369 13.2587 14.2268 13.2587C16.7223 13.2587 18.7441 12.5366 18.7441 11.6453C18.7441 11.3511 18.7441 10.0036 18.7441 9.70935" stroke="#0499DD" stroke-width="0.6" stroke-miterlimit="10" stroke-linecap="round" stroke-linejoin="round"/>
<path d="M12.2739 15.3593C12.8647 15.4606 13.5272 15.5174 14.2267 15.5174C16.7222 15.5174 18.744 14.7953 18.744 13.9041C18.744 13.6098 18.744 12.2624 18.744 11.9681" stroke="#0499DD" stroke-width="0.6" stroke-miterlimit="10" stroke-linecap="round" stroke-linejoin="round"/>
<path d="M7.77319 11.9679C10.268 11.9679 12.2905 11.2456 12.2905 10.3546C12.2905 9.46359 10.268 8.74127 7.77319 8.74127C5.27834 8.74127 3.25586 9.46359 3.25586 10.3546C3.25586 11.2456 5.27834 11.9679 7.77319 11.9679Z" stroke="#0499DD" stroke-width="0.6" stroke-miterlimit="10" stroke-linecap="round" stroke-linejoin="round"/>
<path d="M3.25586 10.6774C3.25586 10.9716 3.25586 12.3191 3.25586 12.6134C3.25586 13.5046 5.27769 14.2267 7.77319 14.2267C10.2687 14.2267 12.2905 13.5046 12.2905 12.6134C12.2905 12.3191 12.2905 10.9716 12.2905 10.6774" stroke="#0499DD" stroke-width="0.6" stroke-miterlimit="10" stroke-linecap="round" stroke-linejoin="round"/>
<path d="M3.25586 12.9359C3.25586 13.2302 3.25586 14.5776 3.25586 14.8719C3.25586 15.7631 5.27769 16.4852 7.77319 16.4852C10.2687 16.4852 12.2905 15.7631 12.2905 14.8719C12.2905 14.5776 12.2905 13.2302 12.2905 12.9359" stroke="#0499DD" stroke-width="0.6" stroke-miterlimit="10" stroke-linecap="round" stroke-linejoin="round"/>
<path d="M3.25586 15.1946C3.25586 15.4889 3.25586 16.8364 3.25586 17.1306C3.25586 18.0218 5.27769 18.744 7.77319 18.744C10.2687 18.744 12.2905 18.0218 12.2905 17.1306C12.2905 16.8364 12.2905 15.4889 12.2905 15.1946" stroke="#0499DD" stroke-width="0.6" stroke-miterlimit="10" stroke-linecap="round" stroke-linejoin="round"/>
</symbol><symbol id="telegram" viewBox="0 0 20 18">
<path d="M18.6643 3.02291L16.0343 15.4259C15.8359 16.3013 15.3184 16.519 14.5831 16.1068L10.5759 13.1538L8.64242 15.0135C8.42848 15.2274 8.24945 15.4065 7.83707 15.4065L8.12496 11.3253L15.5519 4.61413C15.8748 4.32623 15.4819 4.1667 15.05 4.45463L5.86848 10.2359L1.91574 8.99874C1.05594 8.73026 1.04043 8.13889 2.09469 7.72655L17.5554 1.77022C18.2712 1.50178 18.8976 1.92967 18.6643 3.02291Z" stroke="#ff34c0" stroke-width="1.4"/>
</symbol><symbol id="time" viewBox="0 0 15 15">
<path d="M7.5 14.5313C6.10935 14.5313 4.74993 14.1189 3.59365 13.3463C2.43737 12.5737 1.53615 11.4755 1.00398 10.1907C0.471797 8.90595 0.332554 7.4922 0.603857 6.12827C0.875159 4.76435 1.54482 3.5115 2.52816 2.52816C3.5115 1.54482 4.76435 0.875159 6.12827 0.603857C7.4922 0.332554 8.90595 0.471797 10.1907 1.00398C11.4755 1.53615 12.5737 2.43737 13.3463 3.59365C14.1189 4.74993 14.5313 6.10935 14.5313 7.5C14.5313 9.36481 13.7905 11.1532 12.4718 12.4718C11.1532 13.7905 9.36481 14.5313 7.5 14.5313ZM7.5 1.40625C6.29477 1.40625 5.11661 1.76365 4.1145 2.43323C3.11238 3.10282 2.33133 4.05454 1.87011 5.16803C1.40889 6.28151 1.28821 7.50676 1.52334 8.68883C1.75847 9.87091 2.33884 10.9567 3.19107 11.8089C4.0433 12.6612 5.1291 13.2415 6.31117 13.4767C7.49324 13.7118 8.71849 13.5911 9.83198 13.1299C10.9455 12.6687 11.8972 11.8876 12.5668 10.8855C13.2364 9.8834 13.5938 8.70523 13.5938 7.5C13.5938 5.88384 12.9517 4.33387 11.8089 3.19107C10.6661 2.04827 9.11617 1.40625 7.5 1.40625Z" fill="#0499DD"/>
<path d="M9.48751 10.1531L7.1672 7.83281C7.12375 7.78901 7.08938 7.73707 7.06605 7.67996C7.04273 7.62284 7.0309 7.56169 7.03126 7.5V3.75H7.96876V7.30781L10.1531 9.4875L9.48751 10.1531Z" fill="#0499DD"/>
</symbol><symbol id="twitter-footer" viewBox="0 0 18 14">
<path d="M11.5641 0.168904C12.2458 -0.0461515 12.9837 -0.0560928 13.6719 0.140507C14.3602 0.337107 14.9633 0.730138 15.3947 1.26319C16.1053 1.05385 16.8055 0.815959 17.5263 0.606617C17.5164 0.925848 17.4299 1.23907 17.2732 1.52372C17.1165 1.80837 16.8935 2.05738 16.6201 2.2528C16.8726 2.27877 17.1281 2.25112 17.3673 2.17197C17.6064 2.09281 17.8228 1.96424 18 1.79606C17.901 2.20987 17.6999 2.59695 17.4123 2.92708C17.1247 3.2572 16.7585 3.52144 16.3421 3.69916C16.095 9.96988 12.9748 14.1662 5.65332 13.9949H5.14874C4.70595 13.9949 0.731121 13.5667 0 12.2441C1.75201 12.4899 3.53888 12.0976 4.98398 11.1498C3.95423 10.8643 2.13158 10.7026 1.82265 8.40934C2.2108 8.54337 2.6321 8.57306 3.03776 8.49498C1.76087 7.70519 0.339817 7.0391 0.422197 4.99327C0.819634 5.29882 1.3269 5.45507 1.84325 5.43098C1.10183 5.20261 -0.24714 2.30989 0.895881 0.825474C2.82151 2.54778 4.86041 4.17493 8.48512 4.3367C8.71167 2.20522 9.68993 0.777896 11.5641 0.168904Z" fill="#D22856"/>
</symbol><symbol id="vk" viewBox="0 0 32 21">
<path d="M31.307 17.125C29.9016 14.9127 28.2569 12.8618 26.4027 11.0094C26.3689 10.9673 26.3506 10.9149 26.3506 10.861C26.3506 10.807 26.3689 10.7547 26.4027 10.7125C27.9983 8.53465 29.4084 6.22677 30.6183 3.81316C30.7933 3.46778 30.8765 3.08318 30.8599 2.69635C30.8432 2.30952 30.7273 1.93348 30.5233 1.60441C30.3372 1.26995 30.0652 0.99124 29.7353 0.79709C29.4055 0.602939 29.0298 0.500388 28.647 0.500033H25.0845C24.6325 0.508805 24.1923 0.646443 23.8158 0.896769C23.4392 1.14709 23.142 1.49971 22.9589 1.91316C21.9241 4.20166 20.6841 6.39167 19.2539 8.45628V2.63753C19.2555 2.35639 19.2013 2.07773 19.0944 1.81769C18.9876 1.55764 18.8302 1.32138 18.6314 1.12258C18.4326 0.923782 18.1963 0.766395 17.9363 0.659533C17.6762 0.552671 17.3976 0.498458 17.1164 0.500033H11.9152C11.6124 0.504741 11.3166 0.592063 11.0598 0.752571C10.803 0.91308 10.595 1.14068 10.4581 1.4108C10.3212 1.68092 10.2607 1.9833 10.2831 2.2853C10.3055 2.58729 10.4099 2.87744 10.5852 3.12441L11.0602 3.78941C11.3149 4.15532 11.4517 4.59041 11.452 5.03628V9.59628C9.88447 7.27727 8.63815 4.75666 7.74704 2.10316C7.58635 1.63557 7.28374 1.2298 6.88141 0.942416C6.47908 0.655037 5.99709 0.500386 5.50266 0.500033H2.59329C2.28416 0.50373 1.97986 0.577145 1.70305 0.714806C1.42624 0.852468 1.18408 1.05083 0.994594 1.2951C0.805111 1.53937 0.673202 1.82326 0.608696 2.1256C0.54419 2.42794 0.548751 2.74095 0.622039 3.04128C2.22516 9.84566 5.58579 15.4863 9.84891 18.4788C10.1044 18.6603 10.4213 18.7334 10.7305 18.6823C11.0397 18.6311 11.3161 18.4598 11.4995 18.2057C11.5913 18.0787 11.657 17.9349 11.6929 17.7825C11.7288 17.6301 11.7342 17.4721 11.7089 17.3176C11.6835 17.1631 11.6278 17.0151 11.545 16.8822C11.4622 16.7493 11.3539 16.6341 11.2264 16.5432C7.49766 13.9307 4.52891 8.95503 3.02079 2.87503H5.51454C6.60732 6.19516 8.25342 9.30669 10.3833 12.0782C10.6295 12.3927 10.9685 12.6216 11.3522 12.7325C11.7359 12.8434 12.1448 12.8305 12.5208 12.6957C12.9066 12.5612 13.2403 12.3088 13.4747 11.9742C13.7091 11.6396 13.8324 11.2398 13.827 10.8313V5.03628C13.8296 4.28139 13.6417 3.53806 13.2808 2.87503H16.8433V9.32316C16.839 9.78455 16.9867 10.2345 17.2636 10.6036C17.5404 10.9728 17.931 11.2405 18.3752 11.3657C18.8061 11.5091 19.2722 11.5065 19.7015 11.3584C20.1308 11.2103 20.4994 10.9249 20.7502 10.5463C22.4369 8.13994 23.8771 5.5699 25.0489 2.87503H28.3739C27.2421 5.10049 25.9357 7.23279 24.467 9.25191C24.0967 9.74732 23.9169 10.3594 23.9605 10.9764C24.0041 11.5934 24.2682 12.1741 24.7045 12.6125C26.4365 14.3579 27.9955 16.2668 29.3595 18.3125H25.3814C24.1542 16.2811 22.5062 14.5359 20.5483 13.1944C20.2545 12.9792 19.9063 12.8506 19.5432 12.8233C19.18 12.796 18.8165 12.8711 18.4939 13.04C18.1622 13.2098 17.8843 13.4686 17.6913 13.7874C17.4984 14.1062 17.398 14.4724 17.4014 14.845V17.6713C17.4079 17.8363 17.3493 17.9972 17.2382 18.1194C17.1272 18.2416 16.9725 18.3152 16.8077 18.3244H15.7864C15.4715 18.3244 15.1694 18.4495 14.9467 18.6722C14.724 18.8949 14.5989 19.197 14.5989 19.5119C14.5989 19.8269 14.724 20.1289 14.9467 20.3516C15.1694 20.5743 15.4715 20.6994 15.7864 20.6994H16.8077C17.2017 20.6963 17.5912 20.6154 17.9538 20.4614C18.3165 20.3074 18.6452 20.0833 18.921 19.802C19.1968 19.5206 19.4144 19.1876 19.5612 18.8219C19.708 18.4563 19.7811 18.0653 19.7764 17.6713V15.5694C21.2049 16.6439 22.4142 17.9822 23.3389 19.5119C23.5431 19.8657 23.835 20.1609 24.1866 20.3689C24.5381 20.5769 24.9374 20.6908 25.3458 20.6994H29.3595C29.77 20.7004 30.1731 20.5906 30.5263 20.3816C30.8795 20.1726 31.1698 19.8722 31.3664 19.5119C31.5681 19.1442 31.6689 18.7297 31.6585 18.3105C31.648 17.8912 31.5268 17.4822 31.307 17.125Z" fill="#BC0000"/>
</symbol><symbol id="whatsapp" viewBox="0 0 19 19">
<path d="M18.7771 9.37749C18.7734 10.9843 18.4246 12.4019 17.7195 13.7193C17.0553 14.9625 16.1387 15.9978 14.9846 16.8142C13.9715 17.5304 12.8619 18.0203 11.6484 18.2726C10.3051 18.5509 8.9617 18.5212 7.62947 18.2021C6.9244 18.0314 6.249 17.7716 5.61443 17.4265C5.50682 17.3671 5.41404 17.3634 5.299 17.4005C3.89998 17.8496 2.50096 18.2949 1.10193 18.7402C0.942363 18.7921 0.786504 18.8404 0.626933 18.8998C0.515605 18.9406 0.508183 18.8998 0.537871 18.807C0.701152 18.3283 0.860723 17.8496 1.024 17.3671C1.37283 16.3244 1.72166 15.2816 2.07791 14.2425C2.12615 14.1052 2.05564 14.0162 1.99998 13.9197C1.56209 13.1589 1.25037 12.35 1.0574 11.4964C0.638066 9.65581 0.786504 7.8523 1.49158 6.10445C1.89979 5.09507 2.4824 4.1896 3.2283 3.38804C4.1783 2.36382 5.30272 1.6105 6.60154 1.10581C7.81502 0.634525 9.06932 0.452689 10.3607 0.530619C12.1308 0.638236 13.7414 1.22456 15.1553 2.29331C16.9847 3.67378 18.1351 5.48843 18.5953 7.74097C18.7178 8.31617 18.7623 8.89878 18.7771 9.37749ZM9.741 2.03355C9.39588 2.0187 8.99139 2.05953 8.5869 2.1189C8.42733 2.14117 8.27147 2.17456 8.11561 2.21538C5.7035 2.82769 3.97049 4.26753 2.94998 6.53492C2.35994 7.84488 2.20037 9.22906 2.42303 10.6466C2.59744 11.7673 3.01307 12.799 3.66248 13.7304C3.73299 13.8343 3.74412 13.9234 3.7033 14.0384C3.42869 14.8437 3.1615 15.6527 2.89061 16.4617C2.87576 16.5062 2.83123 16.5582 2.87205 16.599C2.91287 16.6435 2.96482 16.5953 3.00936 16.5804C3.82205 16.3207 4.63475 16.0646 5.44002 15.7937C5.62557 15.7306 5.75916 15.7603 5.91873 15.8568C7.7408 16.9515 9.68904 17.241 11.7412 16.6955C13.2998 16.2835 14.5838 15.4337 15.6006 14.1794C16.584 12.966 17.1332 11.5781 17.2445 10.0269C17.3299 8.8357 17.1443 7.67788 16.6693 6.57203C16.0719 5.18042 15.1404 4.06714 13.8824 3.2396C12.6504 2.43062 11.2885 2.01499 9.741 2.03355Z" fill="currentColor"/>
<path d="M5.31006 7.33275C5.3249 6.49779 5.65146 5.81126 6.28975 5.27689C6.47158 5.12474 6.69053 5.06165 6.93174 5.10247C7.03564 5.11732 7.14326 5.13216 7.24346 5.12103C7.4958 5.10247 7.64053 5.24349 7.71846 5.4513C7.95596 6.07474 8.18603 6.70189 8.41982 7.32533C8.46436 7.44408 8.45322 7.55169 8.39756 7.66302C8.25283 7.96361 8.02275 8.1974 7.79268 8.43119C7.59229 8.63529 7.58115 8.70208 7.71846 8.95072C8.38271 10.1531 9.29932 11.0882 10.5685 11.656C10.6315 11.682 10.6872 11.7265 10.7466 11.7525C10.9062 11.8304 11.0509 11.823 11.1845 11.6857C11.4442 11.4222 11.6855 11.1402 11.9192 10.8507C12.1011 10.6244 12.1864 10.591 12.4425 10.706C13.0659 10.9954 13.6597 11.3331 14.2646 11.6597C14.4649 11.7673 14.4872 11.9158 14.4575 12.1867C14.3351 13.2888 13.4927 13.7898 12.5315 13.9494C12.2087 14.0013 11.9044 13.9716 11.6001 13.8751C10.7095 13.5931 9.83369 13.2665 9.04697 12.7544C8.31221 12.2757 7.68135 11.6783 7.12842 10.9992C6.59033 10.3349 6.11162 9.63353 5.71455 8.87279C5.49189 8.43861 5.31006 7.76322 5.31006 7.33275Z" fill="currentColor"/>
</symbol><symbol id="youtube-footer" viewBox="0 0 15 13">
<path d="M1.83356 12.8089C1.64633 12.9278 1.42471 12.9941 1.19626 12.9996C0.967817 13.0051 0.74263 12.9495 0.548717 12.8398C0.354804 12.7301 0.200724 12.571 0.105646 12.3824C0.010569 12.1938 -0.0213097 11.984 0.0139762 11.779V1.22097C-0.0213097 1.01605 0.010569 0.806234 0.105646 0.617628C0.200724 0.429021 0.354804 0.269949 0.548717 0.1602C0.74263 0.0504516 0.967817 -0.00512927 1.19626 0.000372265C1.42471 0.0058738 1.64633 0.0722149 1.83356 0.191142L14.2333 5.69284C15.2556 6.13817 15.2556 6.86183 14.2333 7.30716L1.83356 12.8089Z" fill="#D22856"/>
</symbol></svg>